HIERARCHY
ROOT Hips
{
	OFFSET 0.00000 0.00000 0.00000
	CHANNELS 6 Xposition Yposition Zposition Zrotation Yrotation Xrotation 
	JOINT LHipJoint
	{
		OFFSET 0 0 0
		CHANNELS 3 Zrotation Yrotation Xrotation
		JOINT LeftHip
		{
			OFFSET 1.43652 -1.81092 0.91346
			CHANNELS 3 Zrotation Yrotation Xrotation
			JOINT LeftKnee
			{
				OFFSET 2.45984 -6.75837 0.00000
				CHANNELS 3 Zrotation Yrotation Xrotation
				JOINT LeftAnkle
				{
					OFFSET 2.63718 -7.24559 0.00000
					CHANNELS 3 Zrotation Yrotation Xrotation
					JOINT LeftToe
					{
						OFFSET 0.19690 -0.54098 2.12239
						CHANNELS 3 Zrotation Yrotation Xrotation
						End Site
						{
							OFFSET 0.00000 -0.00000 1.10116
						}
					}
				}
			}
		}
	}
	JOINT RHipJoint
	{
		OFFSET 0 0 0
		CHANNELS 3 Zrotation Yrotation Xrotation
		JOINT RightHip
		{
			OFFSET -1.35116 -1.81092 0.91345
			CHANNELS 3 Zrotation Yrotation Xrotation
			JOINT RightKnee
			{
				OFFSET -2.55576 -7.02189 0.00000
				CHANNELS 3 Zrotation Yrotation Xrotation
				JOINT RightAnkle
				{
					OFFSET -2.61938 -7.19669 0.00000
					CHANNELS 3 Zrotation Yrotation Xrotation
					JOINT RightToe
					{
						OFFSET -0.32509 -0.89318 2.23646
						CHANNELS 3 Zrotation Yrotation Xrotation
						End Site
						{
							OFFSET -0.00000 -0.00000 1.19625
						}
					}
				}
			}
		}
	}
	JOINT lowerback
	{
		OFFSET 0 0 0
		CHANNELS 3 Zrotation Yrotation Xrotation
		JOINT Chest
		{
			OFFSET 0.05193 2.08077 -0.11958
			CHANNELS 3 Zrotation Yrotation Xrotation
			JOINT Chest2
			{
				OFFSET 0.04960 2.08447 0.01967
				CHANNELS 3 Zrotation Yrotation Xrotation
				JOINT lowerneck
				{
					OFFSET 0 0 0
					CHANNELS 3 Zrotation Yrotation Xrotation
					JOINT Neck
					{
						OFFSET -0.10699 1.82066 0.27584
						CHANNELS 3 Zrotation Yrotation Xrotation
						JOINT Head
						{
							OFFSET 0.14949 1.84747 -0.32279
							CHANNELS 3 Zrotation Yrotation Xrotation
							End Site
							{
								OFFSET 0.04969 1.88916 -0.14562
							}
						}
					}
				}
				JOINT LeftCollar
				{
					OFFSET 0 0 0
					CHANNELS 3 Zrotation Yrotation Xrotation
					JOINT LeftShoulder
					{
						OFFSET 3.73629 1.27211 -0.12847
CHANNELS 3 Zrotation Xrotation Yrotation
						JOINT LeftElbow
						{
OFFSET 0 -5.109950 0.000000
CHANNELS 3 Zrotation Xrotation Yrotation
							JOINT LeftWrist
							{
OFFSET 0 -3.212070 0.000000
CHANNELS 3 Zrotation Xrotation Yrotation
								JOINT lhand
								{
									OFFSET 0 0 0
CHANNELS 3 Zrotation Xrotation Yrotation
									JOINT LFingers
									{
OFFSET 0 -0.633490 0.000000
CHANNELS 3 Zrotation Xrotation Yrotation
										End Site
										{
OFFSET 0 -0.510740 0.000000
										}
									}
								}
								JOINT LThumb
								{
OFFSET 0 0.000000 0.000000
CHANNELS 3 Zrotation Xrotation Yrotation
									End Site
									{
OFFSET 0 -0.518530 0.518530
									}
								}
							}
						}
					}
				}
				JOINT RightCollar
				{
					OFFSET 0 0 0
					CHANNELS 3 Zrotation Yrotation Xrotation
					JOINT RightShoulder
					{
						OFFSET -3.70251 1.29541 -0.35354
CHANNELS 3 Zrotation Xrotation Yrotation
						JOINT RightElbow
						{
OFFSET 0 -5.251090 0.000000
CHANNELS 3 Zrotation Xrotation Yrotation
							JOINT RightWrist
							{
OFFSET 0 -3.283640 0.000000
CHANNELS 3 Zrotation Xrotation Yrotation
								JOINT rhand
								{
									OFFSET 0 0 0
CHANNELS 3 Zrotation Xrotation Yrotation
									JOINT RFingers
									{
OFFSET 0 -0.599740 0.000000
CHANNELS 3 Zrotation Xrotation Yrotation
										End Site
										{
OFFSET 0 -0.483530 0.000000
										}
									}
								}
								JOINT RThumb
								{
OFFSET 0 0.000000 0.000000
CHANNELS 3 Zrotation Xrotation Yrotation
									End Site
									{
OFFSET 0 -0.490910 0.490910
									}
								}
							}
						}
					}
				}
			}
		}
	}
}
MOTION
Frames: 8
Frame Time: 0.008333333333333333
7.915724 17.792648 -11.873700 -0.649379 -5.661448 11.533165 0.000000 0.000000 0.000000 -16.498151 -12.135194 -24.346107 1.106682 6.683922 18.782394 -0.364057 -10.845185 1.654586 0.003581 0.384411 1.056104 0.000000 0.000000 0.000000 20.120052 -4.993495 -11.675788 -1.359537 -7.380332 20.847119 -0.253562 -17.818534 -27.308852 -0.014481 -0.776231 2.133337 5.872668 6.029980 6.903024 3.678133 8.769417 -1.774862 -0.395268 4.191491 -5.419959 -12.261575 -9.177301 -21.105823 2.539608 -9.391278 19.602093 1.405555 -4.944340 10.488047 0.000000 0.000000 0.000000 4.257432 6.560647 -34.122263 28.925284 -39.954198 10.712701 11.201586 -2.180876 -10.235657 0.000000 0.000000 0.000000 -7.125000 0.000000 0.000000 -13.827931 40.027985 -1.732953 0.000000 0.000000 0.000000 -0.309498 -50.466131 -3.660211 -10.938405 -18.193720 -1.756668 -30.132094 -26.897629 11.597630 0.000000 0.000000 0.000000 7.125000 0.000000 0.000000 -2.712688 43.312322 -0.113095
7.915700 17.793243 -11.873672 -0.650910 -6.101422 11.471730 0.000000 0.000000 0.000000 -16.498761 -11.955018 -24.272559 1.109401 6.691876 18.805727 -0.345857 -10.594712 1.514781 0.002342 0.310237 0.852356 0.000000 0.000000 0.000000 20.036044 -4.847559 -11.588149 -1.359488 -7.380234 20.846858 -0.274361 -17.595594 -27.188015 -0.013314 -0.744219 2.045321 5.731220 5.952355 6.908561 3.663966 8.652311 -1.761259 -0.323411 4.138259 -5.431120 -12.176376 -9.013562 -21.148913 2.540450 -9.186750 19.685392 1.425824 -4.845727 10.505761 0.000000 0.000000 0.000000 4.191267 6.550111 -34.237069 29.097797 -40.107354 10.823667 11.255667 -2.530588 -10.257088 0.000000 0.000000 0.000000 -7.125000 0.000000 0.000000 -13.786812 40.053637 -1.718723 0.000000 0.000000 0.000000 0.045183 -49.730715 -3.428898 -11.045649 -18.358076 -1.790262 -30.193309 -27.111787 11.619391 0.000000 0.000000 0.000000 7.125000 0.000000 0.000000 -2.767745 43.344545 -0.113170
7.917610 17.793777 -11.871913 -0.618355 -6.588377 11.428553 0.000000 0.000000 0.000000 -16.537707 -11.805197 -24.199492 1.111910 6.699271 18.827376 -0.323734 -10.278636 1.357882 0.001223 0.225932 0.620715 0.000000 0.000000 0.000000 19.893374 -4.712318 -11.545665 -1.362219 -7.387339 20.868136 -0.301208 -17.314509 -27.045086 -0.011884 -0.703217 1.932543 5.576533 5.891960 6.865741 3.622372 8.552265 -1.759654 -0.269298 4.094005 -5.424071 -12.109778 -8.860319 -21.137005 2.565804 -9.005121 19.771127 1.455653 -4.756786 10.518669 0.000000 0.000000 0.000000 4.119467 6.531514 -34.362995 29.251542 -40.243125 10.922868 11.361114 -2.902406 -10.311464 0.000000 0.000000 0.000000 -7.125000 0.000000 0.000000 -13.709443 40.115926 -1.687088 0.000000 0.000000 0.000000 0.415181 -48.953106 -3.000781 -11.199991 -18.594195 -1.839177 -30.213396 -27.419151 11.661251 0.000000 0.000000 0.000000 7.125000 0.000000 0.000000 -2.783780 43.394838 -0.110351
7.920937 17.795070 -11.867025 -0.641404 -7.180844 11.386688 0.000000 0.000000 0.000000 -16.515952 -11.652363 -24.111149 1.117011 6.714065 18.870993 -0.294782 -9.844483 1.159812 0.000399 0.130932 0.359671 0.000000 0.000000 0.000000 19.780910 -4.506226 -11.457582 -1.359155 -7.379404 20.844378 -0.325402 -17.012714 -26.860241 -0.010632 -0.664311 1.825615 5.475695 5.865224 6.792258 3.581104 8.497115 -1.732052 -0.242467 4.071965 -5.362700 -12.042598 -8.712467 -21.204872 2.602175 -8.823571 19.912184 1.485938 -4.666166 10.566789 0.000000 0.000000 0.000000 4.038368 6.472208 -34.472392 29.398380 -40.372113 11.017849 11.458184 -3.218060 -10.499248 0.000000 0.000000 0.000000 -7.125000 0.000000 0.000000 -13.670861 40.309723 -1.615361 0.000000 0.000000 0.000000 0.796158 -48.224857 -2.517195 -11.368728 -18.851249 -1.893362 -30.113517 -27.729885 11.715500 0.000000 0.000000 0.000000 7.125000 0.000000 0.000000 -2.688800 43.444647 -0.103284
7.921011 17.797104 -11.864859 -0.709924 -7.734017 11.363119 0.000000 0.000000 0.000000 -16.431157 -11.476722 -24.069334 1.122997 6.731447 18.922026 -0.270252 -9.459630 0.994533 0.000000 0.038096 0.104724 0.000000 0.000000 0.000000 19.748258 -4.238958 -11.349291 -1.352218 -7.361357 20.790486 -0.339454 -16.793576 -26.701755 -0.009885 -0.643176 1.767376 5.398471 5.831088 6.740098 3.547898 8.438961 -1.736423 -0.224115 4.046090 -5.345237 -11.997712 -8.560042 -21.246266 2.679455 -8.643446 20.090486 1.534609 -4.573928 10.627078 0.000000 0.000000 0.000000 3.972629 6.454526 -34.585842 29.552606 -40.506821 11.117893 11.561433 -3.407216 -10.662690 0.000000 0.000000 0.000000 -7.125000 0.000000 0.000000 -13.621132 40.479999 -1.550812 0.000000 0.000000 0.000000 1.182615 -47.507077 -2.078302 -11.526087 -19.090095 -1.944480 -29.977512 -28.038407 11.748061 0.000000 0.000000 0.000000 7.125000 0.000000 0.000000 -2.561760 43.465353 -0.097096
7.919562 17.798876 -11.865650 -0.747584 -8.226366 11.357332 0.000000 0.000000 0.000000 -16.377011 -11.304204 -24.064470 1.127589 6.744655 18.961104 -0.250642 -9.137105 0.866833 0.000063 -0.049499 -0.135864 0.000000 0.000000 0.000000 19.704299 -3.980295 -11.279620 -1.347611 -7.349332 20.754585 -0.351067 -16.610151 -26.569719 -0.009475 -0.628742 1.727753 5.288698 5.778076 6.699768 3.507431 8.356987 -1.781265 -0.197461 4.007357 -5.381422 -11.938527 -8.398882 -21.187703 2.724968 -8.461185 20.225709 1.574010 -4.484225 10.651130 0.000000 0.000000 0.000000 3.899916 6.477037 -34.688388 29.682550 -40.619743 11.202395 11.677746 -3.460403 -10.735777 0.000000 0.000000 0.000000 -7.125000 0.000000 0.000000 -13.538707 40.562405 -1.512969 0.000000 0.000000 0.000000 1.597957 -46.765411 -1.591629 -11.695712 -19.346737 -2.000375 -30.045210 -28.463684 11.752389 0.000000 0.000000 0.000000 7.125000 0.000000 0.000000 -2.623741 43.478475 -0.098615
7.918459 17.800531 -11.863093 -0.781346 -8.735743 11.320302 0.000000 0.000000 0.000000 -16.339575 -11.125004 -24.013792 1.134324 6.764201 19.018561 -0.230389 -8.797305 0.702655 0.000410 -0.129818 -0.356748 0.000000 0.000000 0.000000 19.645103 -3.740098 -11.157386 -1.340193 -7.329954 20.696674 -0.360800 -16.425354 -26.422641 -0.008669 -0.602561 1.655764 5.168332 5.719388 6.651471 3.470937 8.262481 -1.779424 -0.156075 3.964882 -5.365937 -11.845374 -8.251838 -21.244791 2.706930 -8.277327 20.382076 1.581689 -4.397695 10.699256 0.000000 0.000000 0.000000 3.802522 6.467083 -34.750050 29.830772 -40.747903 11.298999 11.800353 -3.555547 -10.813188 0.000000 0.000000 0.000000 -7.125000 0.000000 0.000000 -13.451761 40.649433 -1.473296 0.000000 0.000000 0.000000 2.048417 -46.091609 -0.981806 -11.882973 -19.628930 -2.062815 -30.229134 -28.941165 11.814578 0.000000 0.000000 0.000000 7.125000 0.000000 0.000000 -2.789392 43.571579 -0.098393
7.917410 17.801474 -11.857522 -0.843228 -9.245805 11.262561 0.000000 0.000000 0.000000 -16.292118 -10.866591 -23.966948 1.145172 6.795211 19.110125 -0.214466 -8.535548 0.521315 0.000716 -0.174118 -0.478399 0.000000 0.000000 0.000000 19.615808 -3.517946 -10.975831 -1.327147 -7.295544 20.593905 -0.367594 -16.249130 -26.263842 -0.007984 -0.577194 1.586103 5.078572 5.663363 6.605786 3.441134 8.174718 -1.776791 -0.125079 3.924898 -5.347524 -11.744798 -8.126719 -21.251437 2.643891 -8.121732 20.514972 1.568908 -4.329137 10.729563 0.000000 0.000000 0.000000 3.712029 6.470954 -34.863130 29.969670 -40.867362 11.389784 12.002464 -3.831221 -10.742311 0.000000 0.000000 0.000000 -7.125000 0.000000 0.000000 -13.261196 40.596801 -1.469167 0.000000 0.000000 0.000000 2.449468 -45.427419 -0.364377 -12.050561 -19.880441 -2.119477 -30.315227 -29.362261 11.892293 0.000000 0.000000 0.000000 7.125000 0.000000 0.000000 -2.864258 43.670872 -0.094077
